<?xml version="1.0" standalone="no"?>
<!DOCTYPE svg PUBLIC "-//W3C//DTD SVG 20010904//EN"
 "http://www.w3.org/TR/2001/REC-SVG-20010904/DTD/svg10.dtd">
<svg version="1.0" xmlns="http://www.w3.org/2000/svg"
 width="328.000000pt" height="328.000000pt" viewBox="0 0 328.000000 328.000000"
 preserveAspectRatio="xMidYMid meet">
<metadata>
Created by potrace 1.11, written by Peter Selinger 2001-2013
</metadata>
<g transform="translate(0.000000,328.000000) scale(0.100000,-0.100000)"
fill="#000000" stroke="none">
<path d="M1282 3263 c-11 -22 -79 -237 -207 -658 -20 -66 -43 -142 -52 -170
-8 -27 -23 -77 -33 -110 -10 -33 -41 -136 -70 -230 -28 -93 -55 -183 -60 -200
-4 -16 -33 -115 -64 -220 -75 -254 -253 -898 -281 -1020 -3 -11 -39 -159 -82
-328 -66 -263 -75 -309 -63 -317 9 -6 163 -10 357 -10 316 0 343 1 352 18 5 9
23 91 40 182 17 91 36 185 41 210 5 25 12 56 14 70 18 102 49 256 53 260 5 6
793 6 803 0 7 -5 22 -67 36 -146 2 -16 13 -69 24 -119 10 -49 21 -103 24 -120
7 -37 14 -72 21 -105 3 -14 7 -34 9 -45 15 -77 37 -175 42 -189 6 -14 43 -16
364 -16 369 0 382 1 375 40 -34 185 -268 1108 -396 1563 -28 100 -60 211 -70
247 -10 36 -41 144 -69 240 -28 96 -56 191 -61 210 -45 154 -276 894 -298 953
l-11 27 -364 0 c-338 0 -366 -1 -374 -17z m468 -1160 c27 -105 51 -202 54
-215 3 -13 18 -88 35 -168 16 -80 32 -159 35 -176 3 -17 13 -66 21 -110 8 -43
15 -85 15 -91 0 -10 -62 -13 -276 -13 -257 0 -275 1 -270 18 2 9 9 42 15 72
27 144 36 188 46 230 3 14 7 36 10 50 20 107 176 727 196 778 11 25 13 20 40
-78 16 -58 52 -191 79 -297z"/>
</g>
</svg>
